<svg xmlns="http://www.w3.org/2000/svg" width="24" height="24" viewBox="0 0 24 24"><g transform="translate(1.028169 22.985915) scale(0.073239 -0.073239)"><path d="M17 210Q4 235 1 257Q-5 289 15 298Q22 301 29.0 299.5Q36 298 42 293L104 227Q109 222 107.0 215.0Q105 208 98.0 206.0Q91 204 86 209L25 274Q26 242 44 211Q57 189 86 156Q89 152 89.0 147.0Q89 142 85.5 138.5Q82 135 77.0 134.5Q72 134 68 138Q37 170 17 210ZM225 98Q220 104 211 102Q189 100 168 106Q161 108 156 103Q148 90 159 84Q167 79 186 77Q196 77 210 77L278 4Q282 0 287.0 0.0Q292 0 296.0 3.5Q300 7 300.0 12.0Q300 17 297 21ZM188 125Q200 125 211.5 129.5Q223 134 232 143L296 208Q300 212 300.0 217.0Q300 222 296.5 225.5Q293 229 287.5 229.0Q282 229 279 226L214 161Q206 153 194.0 151.0Q182 149 171 154L259 241Q264 246 262.0 253.0Q260 260 253.0 262.0Q246 264 241 259L154 171Q149 182 151.0 194.0Q153 206 161 214L226 279Q229 282 229.0 287.5Q229 293 225.5 296.5Q222 300 217.0 300.0Q212 300 208 296L143 232Q128 216 125.5 194.0Q123 172 135 153L4 21Q0 18 0.0 12.5Q0 7 3.5 3.5Q7 0 12.5 0.0Q18 0 21 4L153 135Q169 125 187 125Z"/></g></svg>
